<svg xmlns="http://www.w3.org/2000/svg" viewBox="0 0 73.5 204"><g fill="#fff"><path d="M0 174.1c1.6.8 2.7 2.5 2.7 4.3v24.5l1.1 1.1M0 27.3V30c0 2 1.2 3.8 3 4.5 1.9.8 3.9.4 5.3-1.1L21 20.8l.5.5 29.8 29.5c1.4 1.4 3.5 1.8 5.3 1.1 1.9-.8 3-2.5 3-4.5V0H57V47.3c0 .9-.5 1.7-1.4 2.1-.9.4-1.8.2-2.4-.5L23 19 38.2 4l4-4h-3.8l-.4.3-17 16.8L3.8 0H0v27.3zM2.7 2.6L19.2 19 6.5 31.5c-.7.7-1.6.8-2.4.5-.9-.4-1.4-1.1-1.4-2.1V2.6z" class="st0"/><path d="M10.2 117.3c1.9-.8 3-2.5 3-4.5V57.2c0-.9.5-1.7 1.4-2.1.9-.4 1.8-.2 2.4.5l10 9.9v30c0 2 1.2 3.8 3 4.5 1.9.8 3.9.4 5.3-1.1L48 86.3l.5.5 25 24.6v-3.7L50 84.4l15.2-15 8.3-8.3v-3.7L65 65.8 48 82.6 29.7 64.3V39.8c0-2-1.2-3.8-3-4.5a4.6 4.6 0 0 0-5.3 1.1L0 57.4v3.7l23.2-23c.7-.7 1.6-.8 2.4-.5.9.4 1.4 1.1 1.4 2.1v21.9l-8.1-8a4.97 4.97 0 0 0-5.3-1.1c-1.9.8-3 2.5-3 4.5v55.6c0 .9-.5 1.7-1.4 2.1s-1.8.2-2.4-.5L0 107.7v3.7l4.9 4.8c1.4 1.4 3.4 1.9 5.3 1.1zm19.5-49.2l16.5 16.3-12.7 12.5c-.7.7-1.6.8-2.4.5-.9-.4-1.4-1.1-1.4-2.1V68.1z" class="st0"/><path d="M3.4 152.2l29.8 29.4c1.4 1.4 3.5 1.8 5.3 1.1 1.9-.8 3-2.5 3-4.5V122.6c0-.9.5-1.7 1.4-2.1s1.8-.2 2.4.5l10 9.9v29.9c0 2 1.2 3.8 3 4.5 1.9.8 3.9.4 5.3-1.1l9.9-9.7v-3.7l-11.8 11.6c-.7.7-1.6.8-2.4.5-.9-.4-1.4-1.1-1.4-2.1V133.5l15.6 15.3v-3.7L58 129.8v-24.6c0-2-1.2-3.8-3-4.5a4.6 4.6 0 0 0-5.3 1.1l-29.8 29.5-17 16.7-2.9-2.9v3.7l1 1-1 1v3.7l2.9-2.8.5.5zM20 134.8l31.5-31.2c.7-.7 1.6-.8 2.4-.5.9.4 1.4 1.1 1.4 2.1v21.9l-8.1-8a4.97 4.97 0 0 0-5.3-1.1c-1.9.8-3 2.5-3 4.5v55.6c0 .9-.5 1.7-1.4 2.1-.9.4-1.8.2-2.4-.5l-30.3-30L20 134.8zM2.7 187.8v-9.4c0-1.9-1-3.5-2.7-4.3V204h3.8l-1.1-1.1v-15.1zM73.5 174c-.1-.1-.2-.1-.4-.2a4.6 4.6 0 0 0-5.3 1.1L38.4 204h3.8l27.5-27.2c.7-.7 1.6-.8 2.4-.5.9.4 1.4 1.1 1.4 2.1M73.5 200.3l-8.1-8a4.97 4.97 0 0 0-5.3-1.1c-1.9.8-3 2.5-3 4.5v8.3h2.7v-8.3c0-.9.5-1.7 1.4-2.1.9-.4 1.8-.2 2.4.5l10 9.9" class="st0"/></g></svg>