<svg xmlns="http://www.w3.org/2000/svg" baseProfile="tiny" version="1.2" viewBox="0 0 59 113.7"><path fill="#FFF" d="M10.7 0c-.1 0-.1 0 0 0z"/><path fill="none" d="M24.1 67.4l3.8 3.8a5.29 5.29 0 0 0 7.6 0c2.1-2.1 2.1-5.5 0-7.6a5.29 5.29 0 0 0-7.6 0l-3.8 3.8zM10.8 0c2.8 0 5.5 1.1 7.5 3.1l3.8 3.8L29 0M10.7 16c1.5 0 2.8-.6 3.8-1.6l3.8-3.8-3.8-3.8a5.29 5.29 0 0 0-7.6 0 5.37 5.37 0 0 0 0 7.6c1 1 2.3 1.6 3.8 1.6z"/><path fill="#FFF" d="M24.2 74.9a10.6 10.6 0 0 0 15 0 10.5 10.5 0 0 0 0-15 10.6 10.6 0 0 0-15 0l-3.8 3.8L0 43.5v7.4L6.1 57l10.6 10.5L6.1 77.8 0 83.9v7.3L20.4 71l3.8 3.9zm3.7-11.3a5.29 5.29 0 0 1 7.6 0c2.1 2.1 2.1 5.5 0 7.6a5.29 5.29 0 0 1-7.6 0l-3.8-3.8 3.8-3.8zM28.9 113.7h7.5L59 91.3v-7.4zM10.7 21.2c2.9 0 5.5-1.1 7.5-3.1l3.8-3.8 37 36.5v-7.4L36.3 21 25.8 10.6 36.3.1l.1-.1H29l-7 6.9-3.8-3.8c-2-2-4.6-3.1-7.5-3.1h-.2C7.8 0 5.1 1.1 3.1 3.1 1 5.2 0 7.9 0 10.6s1 5.4 3.1 7.5c2 2 4.7 3.1 7.6 3.1zM6.8 6.8a5.29 5.29 0 0 1 7.6 0l3.8 3.8-3.8 3.8a5.29 5.29 0 0 1-7.6 0 5.37 5.37 0 0 1 0-7.6z"/></svg>
